<svg width="50" height="67" viewBox="0 0 50 67" fill="none" xmlns="http://www.w3.org/2000/svg">
<path d="M49.7865 24.8788C49.7865 36.2039 34.6171 56.3661 27.966 64.685C26.3713 66.6675 23.4152 66.6675 21.8205 64.685C15.0526 56.3661 0 36.2039 0 24.8788C0 11.1385 11.1449 0 24.8932 0C38.6364 0 49.7865 11.1385 49.7865 24.8788Z" fill="#00A859"/>
<path d="M25.5044 20.7324C24.6929 20.7324 23.933 21.0435 23.3576 21.6122C22.785 22.1809 22.4674 22.9319 22.4674 23.7339C22.4674 24.536 22.785 25.287 23.3576 25.8557C23.933 26.4217 24.6929 26.7355 25.5044 26.7355C26.3159 26.7355 27.0758 26.4217 27.6512 25.8557C28.2238 25.287 28.5414 24.536 28.5414 23.7339C28.5414 22.9319 28.2238 22.1809 27.6512 21.6122C27.3702 21.3323 27.0357 21.1104 26.6671 20.9594C26.2986 20.8083 25.9034 20.7312 25.5044 20.7324V20.7324ZM36.6942 27.0493L34.9193 25.5499C35.0034 25.0402 35.0468 24.5199 35.0468 24.0022C35.0468 23.4845 35.0034 22.9614 34.9193 22.4545L36.6942 20.955C36.8283 20.8416 36.9243 20.6905 36.9694 20.5218C37.0145 20.3532 37.0065 20.1749 36.9466 20.0108L36.9222 19.9411C36.4337 18.591 35.7018 17.3396 34.7619 16.2475L34.713 16.1912C34.5989 16.0585 34.4468 15.9632 34.2767 15.9177C34.1067 15.8722 33.9267 15.8787 33.7604 15.9363L31.5566 16.7115C30.7424 16.0517 29.836 15.5313 28.8535 15.1692L28.4274 12.8919C28.3952 12.7203 28.311 12.5625 28.186 12.4394C28.0609 12.3162 27.9009 12.2336 27.7272 12.2025L27.6539 12.1891C26.2426 11.937 24.7553 11.937 23.3441 12.1891L23.2708 12.2025C23.0971 12.2336 22.9371 12.3162 22.812 12.4394C22.6869 12.5625 22.6027 12.7203 22.5706 12.8919L22.1418 15.1799C21.1686 15.5449 20.262 16.064 19.4576 16.7169L17.2376 15.9363C17.0714 15.8783 16.8912 15.8715 16.7211 15.917C16.5509 15.9626 16.3988 16.0582 16.2849 16.1912L16.2361 16.2475C15.2978 17.3408 14.5661 18.5919 14.0758 19.9411L14.0513 20.0108C13.9292 20.3461 14.0296 20.7217 14.3037 20.955L16.1004 22.4706C16.0163 22.9748 15.9756 23.4898 15.9756 23.9995C15.9756 24.5145 16.0163 25.0295 16.1004 25.5284L14.3092 27.044C14.1751 27.1574 14.0791 27.3085 14.034 27.4772C13.9889 27.6458 13.9969 27.824 14.0568 27.9881L14.0812 28.0579C14.5724 29.4071 15.2971 30.6544 16.2415 31.7515L16.2904 31.8078C16.4045 31.9404 16.5566 32.0358 16.7267 32.0813C16.8967 32.1268 17.0768 32.1203 17.243 32.0626L19.463 31.2821C20.2718 31.9392 21.1729 32.4596 22.1472 32.8191L22.576 35.1071C22.6082 35.2787 22.6924 35.4365 22.8174 35.5596C22.9425 35.6828 23.1025 35.7654 23.2762 35.7965L23.3495 35.8099C24.7747 36.0634 26.2342 36.0634 27.6593 35.8099L27.7326 35.7965C27.9063 35.7654 28.0663 35.6828 28.1914 35.5596C28.3165 35.4365 28.4007 35.2787 28.4328 35.1071L28.8589 32.8298C29.8414 32.465 30.7479 31.9473 31.5621 31.2874L33.7658 32.0626C33.932 32.1207 34.1122 32.1275 34.2823 32.0819C34.4525 32.0364 34.6046 31.9408 34.7185 31.8078L34.7673 31.7515C35.7118 30.649 36.4364 29.4071 36.9277 28.0579L36.9521 27.9881C37.0688 27.6555 36.9684 27.2827 36.6942 27.0493ZM25.5044 28.4495C22.8691 28.4495 20.7332 26.3385 20.7332 23.7339C20.7332 21.1294 22.8691 19.0184 25.5044 19.0184C28.1397 19.0184 30.2756 21.1294 30.2756 23.7339C30.2756 26.3385 28.1397 28.4495 25.5044 28.4495Z" fill="white"/>
</svg>
