<svg width="35" height="55" viewBox="0 0 35 55" fill="none" xmlns="http://www.w3.org/2000/svg">
<path d="M12.127 0H17.3242V11L12.127 14.5843V0Z" fill="#00A859"/>
<path d="M22.5212 1.73033H17.324V10.8764L22.5212 14.5843V1.73033Z" fill="#03CB6D"/>
<path d="M22.5212 55L19.9226 52.2809L17.324 55L17.324 41.4045L22.5212 37.573L22.5212 55Z" fill="#03CB6D"/>
<path d="M12.127 53.0225L14.7256 50.3034L17.3242 53.0225L17.3242 41.4045L12.127 37.6966L12.127 53.0225Z" fill="#00A859"/>
<path fill-rule="evenodd" clip-rule="evenodd" d="M30.625 23.5089L20.125 13.0214C18.6753 11.5734 16.3247 11.5734 14.875 13.0214L4.375 23.5089C2.92525 24.9569 2.92525 27.3046 4.375 28.7526L14.875 39.24C16.3247 40.688 18.6753 40.688 20.125 39.24L30.625 28.7526C32.0747 27.3046 32.0747 24.9569 30.625 23.5089ZM21 12.1475C19.067 10.2168 15.933 10.2168 14 12.1475L3.5 22.6349C1.567 24.5656 1.567 27.6959 3.5 29.6265L14 40.114C15.933 42.0446 19.067 42.0446 21 40.114L31.5 29.6265C33.433 27.6959 33.433 24.5656 31.5 22.6349L21 12.1475Z" fill="url(#paint0_linear_839_339)"/>
<path d="M6.85815 20.9045L12.206 15.5015L17.5539 20.9045L12.206 26.3074L6.85815 20.9045Z" fill="#03CB6D"/>
<path d="M6.85815 31.4806L12.206 26.2013L17.5539 31.4806L12.206 36.7599L6.85815 31.4806Z" fill="#00A859"/>
<path d="M17.4463 20.9045L22.7941 15.5015L28.142 20.9045L22.7941 26.3074L17.4463 20.9045Z" fill="#00A859"/>
<path d="M17.4463 31.4806L22.7941 26.2013L28.142 31.4806L22.7941 36.7599L17.4463 31.4806Z" fill="#03CB6D"/>
<defs>
<linearGradient id="paint0_linear_839_339" x1="26.25" y1="17.3912" x2="8.77097" y2="34.8912" gradientUnits="userSpaceOnUse">
<stop stop-color="#00A859"/>
<stop offset="1" stop-color="#03CB6D"/>
</linearGradient>
</defs>
</svg>
