<svg width="10" height="10" viewBox="0 0 10 10" fill="none" xmlns="http://www.w3.org/2000/svg">
<path d="M5 10C2.23828 10 0 7.76172 0 5C0 2.23828 2.23828 0 5 0C7.76172 0 10 2.23828 10 5C10 7.76172 7.76172 10 5 10ZM4.53125 5C4.53125 5.15625 4.60938 5.30273 4.74023 5.37305L6.61523 6.62305C6.83008 6.7832 7.12109 6.72461 7.24805 6.50977C7.4082 6.29492 7.34961 6.00391 7.13477 5.85938L5.46875 4.75V2.34375C5.46875 2.08398 5.25977 1.875 4.98242 1.875C4.74023 1.875 4.51367 2.08398 4.51367 2.34375L4.53125 5Z" fill="#00A859"/>
</svg>
