<svg width="50" height="67" viewBox="0 0 50 67" fill="none" xmlns="http://www.w3.org/2000/svg">
<path d="M49.7865 24.8788C49.7865 36.2039 34.6171 56.3661 27.966 64.685C26.3713 66.6675 23.4152 66.6675 21.8205 64.685C15.0526 56.3661 0 36.2039 0 24.8788C0 11.1385 11.1449 0 24.8932 0C38.6364 0 49.7865 11.1385 49.7865 24.8788Z" fill="#00A859"/>
<path d="M15.7151 22.3508L15.1329 24.5243C14.9918 25.0517 14.9627 25.5973 15.0199 26.1363L13.3699 27.4947C13.062 27.7483 12.6054 27.4746 12.6846 27.0837L13.4084 23.4893C13.4581 23.2428 13.2837 23.0075 13.0334 22.9836L9.38374 22.6297C8.98671 22.5912 8.85734 22.0751 9.18967 21.8544L12.2435 19.8247C12.4526 19.6855 12.4957 19.3958 12.3364 19.2017L10.0062 16.3701C9.75264 16.0621 10.0264 15.606 10.4178 15.6848L14.0121 16.4085C14.2587 16.4582 14.494 16.2838 14.5184 16.0335L14.8723 12.3839C14.9107 11.9864 15.4268 11.8575 15.648 12.1898L17.6777 15.2432C17.8169 15.4523 18.1066 15.4954 18.3007 15.336L21.1319 13.0059C21.4398 12.7523 21.8959 13.026 21.8172 13.417L21.2861 16.0494C21.1591 16.1924 21.0316 16.3349 20.9153 16.4901L19.4083 18.5042L18.9063 19.1755C17.3721 19.5861 16.1322 20.7941 15.7151 22.3508ZM38.8978 28.5621L38.3156 30.7352C38.1689 31.2827 37.8759 31.7481 37.4929 32.1114C37.3655 32.2321 37.2281 32.3418 37.0823 32.4395L36.4265 34.8878C36.3731 35.0879 36.2812 35.2674 36.1617 35.4212C35.8022 35.8824 35.1895 36.1093 34.5895 35.9485L33.1406 35.5604C32.3405 35.3462 31.8657 34.5235 32.0799 33.7234L32.468 32.2745L20.8769 29.1686L20.4888 30.6175C20.2745 31.4177 19.4519 31.8925 18.6517 31.6783L17.2029 31.2902C16.6029 31.1294 16.1857 30.6264 16.1051 30.0475C16.0783 29.8544 16.0887 29.6528 16.1421 29.4532L16.7979 27.0049C16.7203 26.8473 16.6562 26.6834 16.6061 26.5151C16.4562 26.0093 16.4351 25.4595 16.5818 24.912L17.164 22.7384C17.4129 21.8103 18.0714 21.1058 18.8932 20.7598C19.1695 20.6434 19.4616 20.5688 19.7599 20.5386L20.6097 19.4028L22.1167 17.3886C22.2784 17.1725 22.4537 16.9715 22.6417 16.7868C23.0167 16.4169 23.44 16.1099 23.8951 15.8723C24.1229 15.7532 24.3587 15.6515 24.6006 15.568C25.0848 15.4002 25.5939 15.3041 26.1118 15.2849C26.6298 15.2657 27.1576 15.3234 27.6788 15.463L33.4294 17.0038C33.9506 17.1435 34.4362 17.3572 34.8755 17.6333C35.5309 18.0449 36.0864 18.5973 36.5015 19.2505C36.915 19.9011 37.1878 20.6492 37.2834 21.4531L37.5815 23.951L37.7498 25.3596C38.2365 25.711 38.6076 26.1994 38.8157 26.7626C39.0215 27.3194 39.0637 27.9433 38.8978 28.5621V28.5621ZM20.9805 22.985C20.111 22.752 19.3769 23.1743 19.1444 24.041C18.9119 24.9077 19.3371 25.6404 20.2061 25.8734C21.0756 26.1063 22.3408 26.6004 22.5728 25.7337C22.8053 24.867 21.8495 23.2179 20.9805 22.985V22.985ZM34.6027 24.3054L34.3045 21.8075C34.2773 21.5792 34.2159 21.3608 34.1255 21.1578C33.8536 20.5489 33.3192 20.0792 32.6527 19.9006L26.9021 18.3599C26.4677 18.2435 26.0085 18.26 25.5835 18.4071C25.1586 18.5542 24.7875 18.8253 24.5181 19.1853L23.0111 21.1995L31.0735 23.3595L34.6027 24.3054V24.3054ZM35.4694 26.8671C34.5998 26.6341 32.9475 27.5847 32.7155 28.451C32.4835 29.3177 33.8259 29.5225 34.6955 29.7555C35.565 29.9885 36.299 29.5661 36.5315 28.6994C36.7636 27.8332 36.3389 27.1001 35.4694 26.8671Z" fill="white"/>
</svg>
