<?xml version="1.0" encoding="iso-8859-1"?>
<!-- Generator: Adobe Illustrator 19.0.0, SVG Export Plug-In . SVG Version: 6.00 Build 0)  -->
<svg version="1.1" id="Layer_1" xmlns="http://www.w3.org/2000/svg" xmlns:xlink="http://www.w3.org/1999/xlink" x="0px" y="0px"
	 viewBox="0 0 512 512" style="enable-background:new 0 0 512 512;" xml:space="preserve">
<path style="fill:#666666;" d="M493.157,162.427c-0.077,0.041-0.153,0.081-0.23,0.121c-26.887,12.784-59.758,7.298-81.48-16.474
	l-0.026-0.027l-0.013,0.013c-28.242,30.921-75.356,30.921-103.611,0h-0.013c-28.255,30.921-75.368,30.908-103.624,0
	c-14.14,15.453-32.973,23.181-51.818,23.181c-18.833,0-37.678-7.727-51.805-23.194l-0.013,0.013
	c-20.891,22.859-52.099,28.815-78.36,17.869c-1.841-0.779-3.951-1.945-6.15-3.327c-0.895-0.564-1.764-1.167-2.583-1.81v341.404
	h46.666h150.686h287.755V159.14C496.877,160.401,495.074,161.502,493.157,162.427z"/>
<path style="fill:#F95428;" d="M60.098,251.985v248.211h150.686V251.985H60.098z"/>
<rect x="98.459" y="290.338" style="fill:#E6E6E6;" width="73.975" height="171.5"/>
<polygon style="fill:#666666;" points="498.539,11.803 498.539,146.392 411.408,146.392 307.785,146.392 204.161,146.392 
	100.538,146.392 13.433,146.392 13.433,11.803 "/>
<g>
	<path style="fill:#F95428;" d="M511.478,142.749c2.25,12.542-2.902,25.161-12.939,32.398c-1.662,1.202-3.465,2.25-5.383,3.132
		c-0.077,0.038-0.153,0.077-0.23,0.115c-26.887,12.184-59.758,6.955-81.48-15.7l-0.026-0.026h-0.013l-26.273-41.846l26.273-50.207
		h87.131L511.478,142.749z"/>
	<path style="fill:#F95428;" d="M307.785,162.668v0.013c-28.255,29.47-75.368,29.457-103.624,0v-0.013l-12.082-40.567l12.082-51.486
		h103.624l14.703,45.093L307.785,162.668z"/>
	<path style="fill:#F95428;" d="M100.538,70.615l21.223,52.764l-21.223,39.289l-0.013,0.013
		c-20.891,21.786-52.099,27.462-78.36,17.03c-1.841-0.742-3.951-1.854-6.15-3.171c-0.895-0.537-1.764-1.112-2.583-1.726
		c-10.036-7.377-15.15-19.868-12.913-32.308l12.913-71.891C13.433,70.615,100.538,70.615,100.538,70.615z"/>
</g>
<path style="fill:#4D4D4D;" d="M498.539,175.146v32.602c-1.662,1.202-3.465,2.25-5.383,3.132c-0.077,0.038-0.153,0.077-0.23,0.115
	c-26.887,12.184-59.758,6.955-81.48-15.7l-0.026-0.026l-0.013,0.013c-28.242,29.47-75.356,29.47-103.611,0h-0.013
	c-28.255,29.47-75.368,29.457-103.624,0c-14.14,14.728-32.973,22.093-51.818,22.093c-18.833,0-37.678-7.364-51.805-22.105
	l-0.013,0.013c-20.891,21.786-52.099,27.462-78.36,17.03c-1.841-0.742-3.951-1.854-6.15-3.171c-0.895-0.537-1.764-1.112-2.583-1.726
	v-32.602c0.818,0.614,1.688,1.189,2.583,1.726c2.199,1.317,4.309,2.429,6.15,3.171c26.261,10.433,57.469,4.756,78.36-17.03
	l0.013-0.013c14.128,14.741,32.973,22.105,51.805,22.105c18.845,0,37.678-7.364,51.818-22.093c28.255,29.457,75.368,29.47,103.624,0
	h0.013c28.255,29.47,75.368,29.47,103.611,0l0.013-0.013l0.026,0.026c21.722,22.655,54.593,27.884,81.48,15.7
	c0.077-0.038,0.153-0.077,0.23-0.115C495.074,177.396,496.877,176.348,498.539,175.146z"/>
<rect x="264.768" y="251.982" style="fill:#E6E6E6;" width="191.496" height="191.509"/>
<g>
	<path style="fill:#FFFFFF;" d="M264.764,392.802c-2.032,0-4.058-0.802-5.567-2.392c-2.916-3.074-2.787-7.929,0.286-10.844
		L399.84,246.426c3.075-2.915,7.929-2.787,10.844,0.286c2.916,3.074,2.787,7.929-0.286,10.844L270.042,390.696
		C268.557,392.103,266.659,392.802,264.764,392.802z"/>
	
		<rect x="127.786" y="289.174" transform="matrix(-0.6883 -0.7254 0.7254 -0.6883 -18.0624 672.5591)" style="fill:#FFFFFF;" width="15.342" height="101.972"/>
	
		<rect x="127.782" y="349.033" transform="matrix(-0.6883 -0.7254 0.7254 -0.6883 -61.492 773.6168)" style="fill:#FFFFFF;" width="15.342" height="101.972"/>
	<path style="fill:#FFFFFF;" d="M285.081,451.166c-2.032,0-4.058-0.802-5.567-2.392c-2.915-3.074-2.788-7.929,0.286-10.844
		l171.18-162.397c3.074-2.915,7.928-2.787,10.844,0.286c2.915,3.074,2.788,7.929-0.286,10.844L290.359,449.06
		C288.876,450.468,286.976,451.166,285.081,451.166z"/>
</g>
<g>
	<path style="fill:#E54728;" d="M465.208,452.443H255.813V243.035h209.395V452.443z M273.714,434.544H447.31V260.934H273.714
		V434.544z"/>
	<path style="fill:#E54728;" d="M185.692,476.147h-100.5V282.03h100.5V476.147z M101.812,459.526h67.259V298.651h-67.259V459.526z"
		/>
	<path style="fill:#E54728;" d="M51.788,243.674v256.521h16.621v-239.9h134.065v239.9h16.621V243.674H51.788z"/>
</g>
<g>
	<path style="fill:#999999;" d="M411.408,162.668h0.013l-0.013,0.013c-28.242,29.47-75.356,29.47-103.611,0h-0.013v-0.013V70.615
		h103.624V162.668z"/>
	<path style="fill:#999999;" d="M204.161,162.668v0.013c-14.14,14.728-32.973,22.093-51.818,22.093
		c-18.833,0-37.678-7.364-51.805-22.105V70.615h103.624V162.668z"/>
</g>
<g>
</g>
<g>
</g>
<g>
</g>
<g>
</g>
<g>
</g>
<g>
</g>
<g>
</g>
<g>
</g>
<g>
</g>
<g>
</g>
<g>
</g>
<g>
</g>
<g>
</g>
<g>
</g>
<g>
</g>
</svg>
