<svg width="50" height="67" viewBox="0 0 50 67" fill="none" xmlns="http://www.w3.org/2000/svg">
<path d="M49.7865 24.8788C49.7865 36.2039 34.6171 56.3661 27.966 64.685C26.3713 66.6675 23.4152 66.6675 21.8205 64.685C15.0526 56.3661 0 36.2039 0 24.8788C0 11.1385 11.1449 0 24.8932 0C38.6364 0 49.7865 11.1385 49.7865 24.8788Z" fill="#00A859"/>
<path d="M34.9522 21.2332V30.0319C34.9522 30.244 34.868 30.4474 34.718 30.5975C34.568 30.7475 34.3645 30.8317 34.1524 30.8317C33.9402 30.8317 33.7368 30.7475 33.5868 30.5975C33.4368 30.4474 33.3525 30.244 33.3525 30.0319V26.8323C33.3525 26.1959 33.0997 25.5855 32.6496 25.1355C32.1996 24.6855 31.5893 24.4327 30.9528 24.4327H28.5532V14.8341C28.5532 14.4099 28.3847 14.0029 28.0846 13.7029C27.7846 13.4029 27.3777 13.2344 26.9534 13.2344H17.3549C16.9306 13.2344 16.5237 13.4029 16.2237 13.7029C15.9237 14.0029 15.7551 14.4099 15.7551 14.8341V32.4315C15.7551 32.8558 15.9237 33.2627 16.2237 33.5627C16.5237 33.8627 16.9306 34.0312 17.3549 34.0312H26.9534C27.3777 34.0312 27.7846 33.8627 28.0846 33.5627C28.3847 33.2627 28.5532 32.8558 28.5532 32.4315V26.0325H30.9528C31.165 26.0325 31.3684 26.1167 31.5184 26.2667C31.6684 26.4167 31.7527 26.6202 31.7527 26.8323V30.0319C31.7527 30.6683 32.0055 31.2786 32.4556 31.7287C32.9056 32.1787 33.5159 32.4315 34.1524 32.4315C34.7888 32.4315 35.3991 32.1787 35.8492 31.7287C36.2992 31.2786 36.552 30.6683 36.552 30.0319V19.6334C36.552 19.2091 36.3835 18.8022 36.0834 18.5022C35.7834 18.2022 35.3765 18.0337 34.9522 18.0337V15.618C34.9481 15.4087 34.8619 15.2093 34.7124 15.0627C34.5628 14.9162 34.3618 14.8341 34.1524 14.8341C34.041 14.836 33.9311 14.8606 33.8296 14.9065C33.7281 14.9524 33.6371 15.0186 33.5621 15.1011C33.4872 15.1835 33.4299 15.2804 33.3939 15.3858C33.3578 15.4913 33.3437 15.6029 33.3525 15.714V19.6334C33.3525 19.9498 33.4463 20.2591 33.6221 20.5222C33.7979 20.7853 34.0477 20.9903 34.34 21.1114C34.6324 21.2325 34.954 21.2642 35.2643 21.2024C35.5747 21.1407 35.8597 20.9883 36.0834 20.7646C36.3072 20.5409 36.4595 20.2558 36.5213 19.9455C36.583 19.6352 36.5513 19.3135 36.4302 19.0212C36.3091 18.7289 36.1041 18.479 35.841 18.3033C35.5779 18.1275 35.2686 18.0337 34.9522 18.0337V21.2332ZM26.9534 22.0331C26.9534 22.2452 26.8692 22.4486 26.7192 22.5987C26.5692 22.7487 26.3657 22.8329 26.1536 22.8329H18.1548C17.9426 22.8329 17.7392 22.7487 17.5892 22.5987C17.4392 22.4486 17.3549 22.2452 17.3549 22.0331V17.2338C17.3549 17.0216 17.4392 16.8182 17.5892 16.6682C17.7392 16.5182 17.9426 16.4339 18.1548 16.4339H26.1536C26.3657 16.4339 26.5692 16.5182 26.7192 16.6682C26.8692 16.8182 26.9534 17.0216 26.9534 17.2338V22.0331Z" fill="white"/>
</svg>
