<svg width="50" height="67" viewBox="0 0 50 67" fill="none" xmlns="http://www.w3.org/2000/svg">
<path d="M49.7865 24.8788C49.7865 36.2039 34.6171 56.3661 27.966 64.685C26.3713 66.6675 23.4152 66.6675 21.8205 64.685C15.0526 56.3661 0 36.2039 0 24.8788C0 11.1385 11.1449 0 24.8932 0C38.6364 0 49.7865 11.1385 49.7865 24.8788Z" fill="#00A859"/>
<path d="M32.6962 24.9923H17.4486C17.0043 24.9923 16.6386 24.6071 16.6386 24.1691C16.6386 24.0961 16.6519 24.0134 16.6667 23.9472L17.4781 18.232C17.5471 17.8607 17.8786 17.7877 18.2752 17.7877H31.8719C32.2657 17.7877 32.6 17.8545 32.6681 18.2243L33.4795 24.0437C33.4919 24.1114 33.5081 24.1513 33.5081 24.2243C33.5076 24.6623 33.14 24.9923 32.6962 24.9923V24.9923ZM32.0862 31.402C31.2276 31.402 30.5314 30.7205 30.5314 29.8708C30.5314 29.0269 31.2276 28.3463 32.0862 28.3463C32.939 28.3463 33.6367 29.0269 33.6367 29.8708C33.6367 30.7205 32.939 31.402 32.0862 31.402ZM18.0381 31.402C17.1857 31.402 16.489 30.7205 16.489 29.8708C16.489 29.0269 17.1857 28.3463 18.0381 28.3463C18.899 28.3463 19.5943 29.0269 19.5943 29.8708C19.5943 30.7205 18.899 31.402 18.0381 31.402ZM20.7143 14.4256H30.2381V15.8665H20.7143C19.7619 15.8665 19.7619 14.4256 20.7143 14.4256ZM34.1438 16.6302C33.8657 15.2791 33.0533 14.7349 31.7281 14.1912C30.4052 13.6494 27.3395 13 25.0338 13C22.7181 13 19.6367 13.6499 18.3124 14.1912C16.9876 14.7354 16.1886 15.2791 15.9129 16.6302L15 24.1513V34.5985H16.4286V35.5591C16.4286 37.4803 18.8095 37.4803 18.8095 35.5591V34.5985H30.7143V35.5591C30.7143 37.4803 33.5714 37.4803 33.5714 35.5591V34.5985H35V24.1513L34.1438 16.6302Z" fill="white"/>
</svg>
