<svg width="50" height="67" viewBox="0 0 50 67" fill="none" xmlns="http://www.w3.org/2000/svg">
<path d="M49.7865 24.8788C49.7865 36.2039 34.6171 56.3661 27.966 64.685C26.3713 66.6675 23.4152 66.6675 21.8205 64.685C15.0526 56.3661 0 36.2039 0 24.8788C0 11.1385 11.1449 0 24.8932 0C38.6364 0 49.7865 11.1385 49.7865 24.8788Z" fill="#00A859"/>
<path d="M33.7902 22.7495L32.407 16.9749C32.1645 15.9674 31.1436 15.3346 30.1305 15.5833C29.2395 15.8009 28.8064 16.418 28.6309 16.8523C28.4233 17.3647 27.4969 19.6867 27.2803 20.1665C27.2044 20.333 27.0441 20.4208 27.0115 20.4354C26.8275 20.5169 24.9865 21.2938 24.9865 21.2938V21.2971C24.8033 21.3816 24.6481 21.5166 24.539 21.6863C24.43 21.856 24.3717 22.0534 24.3711 22.2551C24.3711 22.8418 24.8515 23.3176 25.4438 23.3176C25.5715 23.3176 25.693 23.2912 25.8072 23.2507V23.2546L28.2512 22.2388C28.5865 22.0824 28.7502 21.8844 28.9167 21.5958C28.9864 21.4743 29.1985 20.9658 29.3712 20.5484L30.846 26.7163L30.8443 36.2731C30.8415 37.2226 31.4974 37.9966 32.4559 38C33.4155 38.0034 34.1091 37.2367 34.1153 36.2855L34.1248 25.0057C34.1237 24.4753 33.9128 23.2147 33.7902 22.7495Z" fill="white"/>
<path d="M28.4429 15.2975C29.6404 15.2975 30.6113 14.3355 30.6113 13.1488C30.6113 11.962 29.6404 11 28.4429 11C27.2453 11 26.2744 11.962 26.2744 13.1488C26.2744 14.3355 27.2453 15.2975 28.4429 15.2975Z" fill="white"/>
<path d="M20.1362 31.3074V33.7149C20.4326 33.6662 20.7022 33.5142 20.8973 33.2857C21.0919 33.0568 21.1892 32.789 21.1892 32.4808C21.1892 32.2051 21.1076 31.9672 20.9445 31.7669C20.7791 31.5689 20.5097 31.4159 20.1362 31.3074V31.3074ZM18.6489 27.5684C18.5027 27.7653 18.429 27.9836 18.429 28.2221C18.429 28.4414 18.4959 28.6428 18.6281 28.8296C18.762 29.0174 18.9639 29.1693 19.2323 29.2841V27.1483C18.9981 27.2228 18.7938 27.37 18.6489 27.5684V27.5684ZM24.3696 24.7087H24.3718L21.0109 17.966L21.0103 17.9722C20.8847 17.7129 20.6885 17.4943 20.4442 17.3415C20.1999 17.1888 19.9175 17.1081 19.6294 17.1088H16.5317C15.6863 17.1082 15 17.7877 15 18.6258V38H24.5434V25.4692C24.5425 25.2059 24.4832 24.9462 24.3696 24.7087V24.7087ZM22.0341 34.1413C21.5784 34.6514 20.9462 34.9642 20.1379 35.0789V36.2338H19.2339V35.1099C18.5151 35.0238 17.9329 34.7578 17.4829 34.3139C17.0351 33.869 16.7488 33.2418 16.6245 32.4313L18.2501 32.2574C18.307 32.567 18.4351 32.8592 18.6242 33.1108C18.8059 33.3493 19.0095 33.5219 19.2334 33.6288V31.0424C18.42 30.8118 17.8221 30.4625 17.4435 29.9973C17.0627 29.5304 16.8726 28.964 16.8726 28.2969C16.8726 27.6219 17.0869 27.0549 17.5183 26.5953C17.9481 26.1369 18.5196 25.8719 19.2339 25.8028V25.1913H20.1379V25.8028C20.7971 25.8804 21.3231 26.1037 21.7134 26.4716C22.1027 26.8389 22.3519 27.3333 22.4604 27.9504L20.8849 28.154C20.7887 27.6691 20.5401 27.3389 20.1379 27.1663V29.5794C21.1341 29.8477 21.813 30.1942 22.1747 30.6194C22.5353 31.0458 22.7164 31.592 22.7164 32.2586C22.7164 33.0033 22.4891 33.6305 22.0341 34.1413V34.1413Z" fill="white"/>
</svg>
