<svg width="50" height="67" viewBox="0 0 50 67" fill="none" xmlns="http://www.w3.org/2000/svg">
<path d="M49.7865 24.8788C49.7865 36.2039 34.6171 56.3661 27.966 64.685C26.3713 66.6675 23.4152 66.6675 21.8205 64.685C15.0526 56.3661 0 36.2039 0 24.8788C0 11.1385 11.1449 0 24.8932 0C38.6364 0 49.7865 11.1385 49.7865 24.8788Z" fill="#00A859"/>
<path d="M37 35L32.1549 11H26.1738L26.3571 16.5335H23.6429L23.8262 11H17.8451L13 35H23.0312L23.2601 28.0911H26.7399L26.9688 35H37ZM26.6715 26.0246H23.3285L23.5981 17.8853H26.4019L26.6715 26.0246" fill="white"/>
</svg>
