<svg width="50" height="67" viewBox="0 0 50 67" fill="none" xmlns="http://www.w3.org/2000/svg">
<path d="M49.7865 24.8788C49.7865 36.2039 34.6171 56.3661 27.966 64.685C26.3713 66.6675 23.4152 66.6675 21.8205 64.685C15.0526 56.3661 0 36.2039 0 24.8788C0 11.1385 11.1449 0 24.8932 0C38.6364 0 49.7865 11.1385 49.7865 24.8788Z" fill="#00A859"/>
<path d="M30.1925 23.4425C31.1667 22.4692 31.8747 21.2621 32.2488 19.9368C32.623 18.6115 32.6506 17.2123 32.3292 15.8733L35.1984 14.6428C35.2859 14.6053 35.3814 14.5901 35.4762 14.5985C35.571 14.607 35.6623 14.6389 35.7417 14.6914C35.8212 14.7438 35.8864 14.8151 35.9315 14.899C35.9765 14.9828 36.0001 15.0766 36 15.1718V31.55L27.95 35L21.05 31.55L13.8016 34.6562C13.7141 34.6937 13.6186 34.7089 13.5238 34.7004C13.429 34.6919 13.3377 34.66 13.2583 34.6076C13.1788 34.5551 13.1136 34.4838 13.0685 34.3999C13.0235 34.3161 12.9999 34.2223 13 34.1271V17.7501L16.5984 16.2079C16.3452 17.5023 16.4142 18.8391 16.7995 20.1006C17.1847 21.362 17.8743 22.5093 18.8075 23.4414L24.5 29.135L30.1925 23.4425ZM28.5664 21.8164L24.5 25.8805L20.4336 21.8153C19.6296 21.0111 19.0821 19.9865 18.8604 18.8712C18.6386 17.7558 18.7526 16.5998 19.1878 15.5492C19.6231 14.4986 20.3601 13.6007 21.3056 12.9689C22.2512 12.3372 23.3628 12 24.5 12C25.6372 12 26.7488 12.3372 27.6944 12.9689C28.6399 13.6007 29.3769 14.4986 29.8122 15.5492C30.2474 16.5998 30.3614 17.7558 30.1396 18.8712C29.9179 19.9865 29.3704 21.0111 28.5664 21.8153V21.8164Z" fill="white"/>
</svg>
