<svg width="50" height="67" viewBox="0 0 50 67" fill="none" xmlns="http://www.w3.org/2000/svg">
<path d="M49.7865 24.8788C49.7865 36.2039 34.6171 56.3661 27.966 64.685C26.3713 66.6675 23.4152 66.6675 21.8205 64.685C15.0526 56.3661 0 36.2039 0 24.8788C0 11.1385 11.1449 0 24.8932 0C38.6364 0 49.7865 11.1385 49.7865 24.8788Z" fill="#00A859"/>
<path d="M24.8932 11.974C18.4548 11.974 13.2344 17.1944 13.2344 23.6328C13.2344 30.0712 18.4548 35.2917 24.8932 35.2917C31.3316 35.2917 36.5521 30.0712 36.5521 23.6328C36.5521 17.1944 31.3316 11.974 24.8932 11.974ZM29.4865 27.2163L28.7422 28.2313C28.726 28.2534 28.7056 28.2721 28.6822 28.2863C28.6588 28.3005 28.6328 28.3099 28.6057 28.314C28.5786 28.3181 28.551 28.3168 28.5244 28.3102C28.4978 28.3036 28.4728 28.2918 28.4507 28.2755L24.1463 25.137C24.1195 25.1178 24.0977 25.0923 24.0828 25.0629C24.0678 25.0335 24.0602 25.0009 24.0605 24.9679V17.8034C24.0605 17.6889 24.1541 17.5952 24.2686 17.5952H25.5204C25.6349 17.5952 25.7286 17.6889 25.7286 17.8034V24.2444L29.4397 26.9275C29.5333 26.9925 29.5542 27.1227 29.4865 27.2163Z" fill="white"/>
</svg>
