<svg width="50" height="67" viewBox="0 0 50 67" fill="none" xmlns="http://www.w3.org/2000/svg">
<path d="M49.7865 24.8788C49.7865 36.2039 34.6171 56.3661 27.966 64.685C26.3713 66.6675 23.4152 66.6675 21.8205 64.685C15.0526 56.3661 0 36.2039 0 24.8788C0 11.1385 11.1449 0 24.8932 0C38.6364 0 49.7865 11.1385 49.7865 24.8788Z" fill="#00A859"/>
<path d="M13 31.75C13 32.4402 13.5598 33 14.25 33H16.75C17.4402 33 18 32.4402 18 31.75V19.25H13V31.75ZM35.6234 24.25C36.3211 23.5707 36.75 22.7914 36.75 21.9488C36.75 19.884 35.1176 18.2852 33.3156 17.148C31.6773 16.1141 30.166 14.8914 28.9422 13.3895L28.625 13L28.3078 13.3895C27.084 14.8914 25.573 16.1145 23.9344 17.148C22.1324 18.2852 20.5 19.884 20.5 21.9488C20.5 22.7914 20.9289 23.5707 21.6266 24.25H35.6234ZM36.75 25.5H20.5C19.8098 25.5 19.25 26.0598 19.25 26.75V31.75C19.25 32.4402 19.8098 33 20.5 33H21.75V30.5C21.75 29.8098 22.3098 29.25 23 29.25C23.6902 29.25 24.25 29.8098 24.25 30.5V33H26.75V30.1875C26.75 28.3125 28.625 27.375 28.625 27.375C28.625 27.375 30.5 28.3125 30.5 30.1875V33H33V30.5C33 29.8098 33.5598 29.25 34.25 29.25C34.9402 29.25 35.5 29.8098 35.5 30.5V33H36.75C37.4402 33 38 32.4402 38 31.75V26.75C38 26.0598 37.4402 25.5 36.75 25.5ZM15.5 13C15.5 13 13 14.25 13 16.75V18H18V16.75C18 14.25 15.5 13 15.5 13Z" fill="white"/>
</svg>
