<svg width="50" height="67" viewBox="0 0 50 67" fill="none" xmlns="http://www.w3.org/2000/svg">
<path d="M49.7865 24.8788C49.7865 36.2039 34.6171 56.3661 27.966 64.685C26.3713 66.6675 23.4152 66.6675 21.8205 64.685C15.0526 56.3661 0 36.2039 0 24.8788C0 11.1385 11.1449 0 24.8932 0C38.6364 0 49.7865 11.1385 49.7865 24.8788Z" fill="#00A859"/>
<path d="M19.198 32.4C17.8784 32.4 16.8107 33.435 16.8107 34.7C16.8107 35.965 17.8784 37 19.198 37C20.5177 37 21.5974 35.965 21.5974 34.7C21.5974 33.435 20.5177 32.4 19.198 32.4ZM13.1997 16.3H14.3993L18.7182 25.0285L17.0986 27.8345C16.2228 29.3755 17.3745 31.25 19.198 31.25H32.3944C33.0542 31.25 33.5941 30.7325 33.5941 30.1C33.5941 29.4675 33.0542 28.95 32.3944 28.95H19.198L20.5177 26.65H29.4552C30.3549 26.65 31.1467 26.1785 31.5546 25.4655L35.8494 18.002C35.9505 17.8277 36.0024 17.6311 35.9999 17.4317C35.9974 17.2322 35.9406 17.0369 35.8352 16.865C35.7298 16.693 35.5793 16.5504 35.3988 16.4514C35.2182 16.3523 35.0138 16.3001 34.8057 16.3H17.0506L16.2468 14.6555C16.1504 14.4592 15.9977 14.2933 15.8064 14.1772C15.6152 14.0611 15.3935 13.9997 15.1671 14H13.1997C12.5399 14 12 14.5175 12 15.15C12 15.7825 12.5399 16.3 13.1997 16.3ZM31.1947 32.4C29.8751 32.4 28.8074 33.435 28.8074 34.7C28.8074 35.965 29.8751 37 31.1947 37C32.5144 37 33.5941 35.965 33.5941 34.7C33.5941 33.435 32.5144 32.4 31.1947 32.4Z" fill="white"/>
</svg>
