<svg width="50" height="67" viewBox="0 0 50 67" fill="none" xmlns="http://www.w3.org/2000/svg">
<path d="M49.7865 24.8788C49.7865 36.2039 34.6171 56.3661 27.966 64.685C26.3713 66.6675 23.4152 66.6675 21.8205 64.685C15.0526 56.3661 0 36.2039 0 24.8788C0 11.1385 11.1449 0 24.8932 0C38.6364 0 49.7865 11.1385 49.7865 24.8788Z" fill="#00A859"/>
<path d="M34.1364 18.25H30.4659V17.83C30.4659 15.163 28.242 13 25.5 13C22.758 13 20.5341 15.163 20.5341 17.83V18.25H16.8636C16.3859 18.25 16 18.6254 16 19.09V33.16C16 33.6246 16.3859 34 16.8636 34H34.1364C34.6141 34 35 33.6246 35 33.16V19.09C35 18.6254 34.6141 18.25 34.1364 18.25ZM28.5227 18.25H22.4773V17.83C22.4773 16.2051 23.8294 14.89 25.5 14.89C27.1706 14.89 28.5227 16.2051 28.5227 17.83V18.25Z" fill="white"/>
</svg>
