<svg width="50" height="67" viewBox="0 0 50 67" fill="none" xmlns="http://www.w3.org/2000/svg">
<path d="M49.7865 24.8788C49.7865 36.2039 34.6171 56.3661 27.966 64.685C26.3713 66.6675 23.4152 66.6675 21.8205 64.685C15.0526 56.3661 0 36.2039 0 24.8788C0 11.1385 11.1449 0 24.8932 0C38.6364 0 49.7865 11.1385 49.7865 24.8788Z" fill="#00A859"/>
<path d="M27.8159 28.4374H29.4717V30.0932H27.8159V28.4374ZM33.5393 28.4374H35.1951V30.0932H33.5393V28.4374ZM32.1504 22.5652V20.9102H29.8557V21.7163L30.7117 22.5659L32.1504 22.5652Z" fill="white"/>
<path d="M37.8243 31.5129V28.0217H38.3508L38.8402 27.5379L33.0424 21.7401H32.3226V22.7449H30.636L29.6311 21.7401H26.847L21.0555 27.5316L21.5449 28.0209H22.3201V31.5121H20.8069C18.5438 29.3473 17.942 24.4371 18.1534 20.7843L18.1907 20.7099H18.2089C19.1987 20.7099 20.076 21.1897 20.6224 21.9293L20.6279 21.9372C21.0397 22.4939 21.2875 23.1947 21.2875 23.9525C21.2875 24.4751 21.1703 24.97 20.9597 25.4126L20.9684 25.392C21.4103 25.2789 21.8211 25.0678 22.1704 24.7744L22.1657 24.7783C22.5294 24.4618 22.8209 24.0708 23.0204 23.6319C23.22 23.193 23.323 22.7163 23.3226 22.2342C23.3226 21.478 23.0739 20.7804 22.6542 20.2182L22.6606 20.2269C22.3005 19.7247 21.7912 19.3489 21.2053 19.1529C20.6193 18.9568 19.9864 18.9505 19.3966 19.1349L19.4172 19.1294C19.627 18.9987 19.8686 18.8831 20.1227 18.7952L20.1481 18.7873C20.4935 18.6597 20.8591 18.5951 21.2274 18.5965C22.0849 18.5965 22.8617 18.9393 23.4295 19.4944L23.4287 19.4936C23.5128 19.0495 23.4875 18.5916 23.355 18.1594L23.3606 18.1792C23.2293 17.794 23.0209 17.4397 22.7483 17.1376C22.4756 16.8356 22.1443 16.5922 21.7746 16.4224C21.4048 16.2525 21.0044 16.1597 20.5976 16.1495C20.1908 16.1394 19.7862 16.2122 19.4085 16.3635L19.4283 16.3564C19.2372 16.4222 19.0514 16.5024 18.8724 16.5963L18.8954 16.5852C18.8415 16.3376 18.7616 16.0963 18.657 15.8654L18.6666 15.8884C17.9697 14.3261 16.3718 13.5881 15.0946 14.2334C14.7496 14.4098 14.4533 14.6681 14.2315 14.9857L14.2267 14.9936C14.6762 15.0377 15.1093 15.1862 15.4913 15.4272C15.8733 15.6682 16.1938 15.995 16.4272 16.3817L16.4344 16.3944C16.1381 16.246 15.8245 16.1351 15.5008 16.0642L15.4739 16.0594C13.5101 15.6374 11.6414 16.704 11.3064 18.4468C11.2169 18.9249 11.2466 19.4177 11.3927 19.8816L11.3872 19.861C11.8263 19.3625 12.3946 18.995 13.0294 18.7991C13.6642 18.6032 14.3408 18.5865 14.9845 18.7509L14.9592 18.7453C15.283 18.8134 15.5697 18.9116 15.8381 19.0407L15.8151 19.0304C15.1727 18.9448 14.5194 19.0528 13.9386 19.3406C13.3579 19.6283 12.8762 20.0827 12.5551 20.6457L12.5464 20.6616C12.2112 21.2263 12.0353 21.8713 12.0373 22.5279C12.0373 23.7695 12.6525 24.867 13.5956 25.5322L13.6075 25.5401C14.0133 25.8126 14.4763 25.9881 14.9608 26.0532L14.9774 26.0548C14.628 25.4759 14.4442 24.8123 14.4461 24.1362C14.4461 23.4449 14.6337 22.7972 14.9615 22.2421L14.952 22.2595C15.1956 21.8356 15.5295 21.4705 15.9301 21.1902C16.3307 20.91 16.788 20.7214 17.2697 20.6378L17.2895 20.6347C16.1675 25.7444 15.8571 29.3045 16.7828 31.5113H14.0858V33H39.5418V31.5113H37.8243V31.5129ZM31.5292 28.1025H37.2035V31.5129H31.5292V28.1025ZM22.929 27.4263L26.8486 23.5067L30.7682 27.4263V31.5129H26.4646V28.4374H24.2878V31.5129H22.9243V27.4263H22.929Z" fill="white"/>
</svg>
